PathFileType  4	(X/Y/Z) C:\Users\wagnerel85475\Documents\Thesis\opencap-core\Data\3375ffbc-daeb-4a43-b4f7-ac9899cd4c71\MarkerData\PreAugmentation
DataRate	CameraRate	NumFrames	NumMarkers	Units	OrigDataRate	OrigDataStartFrame	OrigNumFrames
60.0	60.0	15	20	m	60.0	113	300
Frame#	Time	Neck			RShoulder			RElbow			RWrist			LShoulder			LElbow			LWrist			midHip			RHip			RKnee			RAnkle			LHip			LKnee			LAnkle			LBigToe			LSmallToe			LHeel			RBigToe			RSmallToe			RHeel			
		X1	Y1	Z1	X2	Y2	Z2	X3	Y3	Z3	X4	Y4	Z4	X5	Y5	Z5	X6	Y6	Z6	X7	Y7	Z7	X8	Y8	Z8	X9	Y9	Z9	X10	Y10	Z10	X11	Y11	Z11	X12	Y12	Z12	X13	Y13	Z13	X14	Y14	Z14	X15	Y15	Z15	X16	Y16	Z16	X17	Y17	Z17	X18	Y18	Z18	X19	Y19	Z19	X20	Y20	Z20	

113	1.8666667	0.8683200	1.0880300	-0.1573400	0.8897200	1.0908500	0.0235800	0.7259300	0.8595100	0.1863500	0.7350100	0.5725100	0.2103900	0.8793800	1.0897000	-0.3390900	0.6983300	0.8125300	-0.4397600	0.7383100	0.5178800	-0.4819800	0.5122000	0.6854300	-0.1200400	0.4960700	0.6827800	-0.0050400	0.8083200	0.3275100	-0.0201900	0.6881200	-0.1770000	0.0022700	0.5058300	0.6824800	-0.2460500	0.7843200	0.3237200	-0.3024500	0.6871200	-0.1892600	-0.3165000	0.9026400	-0.2146300	-0.3438600	0.8374200	-0.2166000	-0.3868700	0.6401700	-0.2311400	-0.3131200	0.8980000	-0.2122600	0.0348600	0.8348400	-0.2154100	0.0697200	0.6192700	-0.2312100	-0.0126000
114	1.8833333	0.8680900	1.1271500	-0.1567600	0.8817100	1.1335900	0.0281500	0.7265300	0.8909900	0.1780100	0.7255300	0.5890700	0.2151800	0.8717900	1.1142400	-0.3430900	0.7131000	0.8395600	-0.4312400	0.7351500	0.5497300	-0.4811800	0.5134800	0.6936000	-0.1197900	0.5088900	0.6881100	-0.0021800	0.7889000	0.3308900	-0.0188400	0.6868000	-0.1772500	0.0036100	0.5068400	0.6906400	-0.2455900	0.7753600	0.3239400	-0.2987500	0.6871000	-0.1887300	-0.3165000	0.9028800	-0.2143500	-0.3438200	0.8369500	-0.2167900	-0.3868900	0.6400400	-0.2351100	-0.3118300	0.8980900	-0.2122800	0.0349300	0.8339500	-0.2156300	0.0700500	0.6185000	-0.2337500	-0.0119400
115	1.9000000	0.8672300	1.1414600	-0.1573900	0.8811500	1.1408900	0.0277200	0.7066200	0.9028200	0.1796700	0.7338700	0.6241800	0.2105700	0.8700200	1.1395800	-0.3431700	0.7142500	0.8542900	-0.4311500	0.7277100	0.5705500	-0.4785900	0.5142400	0.6972100	-0.1204800	0.5306100	0.7005800	-0.0034100	0.7885700	0.3309800	-0.0184500	0.6866000	-0.1804400	0.0043300	0.5164700	0.6960700	-0.2425900	0.7747800	0.3254900	-0.2980200	0.6870800	-0.1891900	-0.3165000	0.9026000	-0.2147000	-0.3438400	0.8373500	-0.2167100	-0.3868900	0.6315200	-0.2383200	-0.3163100	0.8893000	-0.2152200	0.0319000	0.8268000	-0.2184100	0.0739500	0.6190100	-0.2337100	-0.0119500
116	1.9166667	0.8670200	1.1487800	-0.1568800	0.8813500	1.1584400	0.0279800	0.7027900	0.9315400	0.1724900	0.7330400	0.6310400	0.2104700	0.8702700	1.1463600	-0.3431300	0.7125900	0.8806700	-0.4316000	0.7255100	0.5854500	-0.4780700	0.5331500	0.7042800	-0.1205400	0.5490400	0.7081300	-0.0041800	0.7874700	0.3345200	-0.0183700	0.6866300	-0.1807600	0.0043300	0.5261900	0.7016900	-0.2458600	0.7654600	0.3227300	-0.2939400	0.6870700	-0.1887700	-0.3165400	0.9025300	-0.2178100	-0.3444300	0.8371500	-0.2200500	-0.3874700	0.6309300	-0.2383900	-0.3158400	0.8980700	-0.2122600	0.0349600	0.8426500	-0.2124400	0.0729900	0.6186400	-0.2337600	-0.0119000
117	1.9333333	0.8658600	1.1847300	-0.1572900	0.8798500	1.1911000	0.0278800	0.7127700	0.9500700	0.1670700	0.7338300	0.6464800	0.2106600	0.8693900	1.1718900	-0.3433100	0.7201900	0.9034900	-0.4265200	0.7337100	0.6093000	-0.4811600	0.5405300	0.7242200	-0.1249600	0.5574700	0.7325700	-0.0084800	0.7789900	0.3359200	-0.0217900	0.6874300	-0.1807600	0.0030700	0.5250100	0.7169800	-0.2460900	0.7575900	0.3244500	-0.2906600	0.6868400	-0.1822000	-0.3165400	0.9022900	-0.2180900	-0.3444700	0.8374800	-0.2203300	-0.3862000	0.6310600	-0.2343200	-0.3170000	0.8978100	-0.2121800	0.0348500	0.8346700	-0.2154600	0.0697500	0.6190200	-0.2337600	-0.0119400
118	1.9500000	0.8651900	1.1957400	-0.1568300	0.8708300	1.1982600	0.0248600	0.7026500	0.9569100	0.1640600	0.7325100	0.6757200	0.2106300	0.8691900	1.1930100	-0.3432900	0.7109200	0.9101000	-0.4314100	0.7330200	0.6225500	-0.4742300	0.5500100	0.7313000	-0.1282300	0.5825700	0.7406300	-0.0132300	0.7783700	0.3324800	-0.0216900	0.6868000	-0.1774100	0.0037100	0.5452800	0.7278800	-0.2452700	0.7572300	0.3235800	-0.2904600	0.6871300	-0.1852900	-0.3171800	0.9025900	-0.2178500	-0.3444600	0.8370200	-0.2236400	-0.3867800	0.6307100	-0.2342800	-0.3164500	0.8986700	-0.2129800	0.0335600	0.8339000	-0.2155900	0.0700100	0.6185900	-0.2337500	-0.0118600
119	1.9666667	0.8648300	1.2064300	-0.1574800	0.8710900	1.2157300	0.0244300	0.7011600	0.9691300	0.1638600	0.7328400	0.6906000	0.2106300	0.8673200	1.2040800	-0.3434900	0.7109000	0.9363600	-0.4311200	0.7344500	0.6388200	-0.4748700	0.5603700	0.7421400	-0.1336300	0.5849000	0.7474000	-0.0136800	0.7780900	0.3322900	-0.0213400	0.6866000	-0.1806100	0.0043200	0.5445900	0.7392000	-0.2459900	0.7570900	0.3213400	-0.2901500	0.6871000	-0.1857800	-0.3171600	0.9024300	-0.2181200	-0.3445200	0.8376800	-0.2235900	-0.3868400	0.6216000	-0.2376300	-0.3132600	0.8986400	-0.2128900	0.0335300	0.8345900	-0.2154000	0.0697500	0.6188700	-0.2338400	-0.0119400
120	1.9833333	0.8651400	1.2385000	-0.1568500	0.8699000	1.2483900	0.0248100	0.6908800	0.9974200	0.1609200	0.7319800	0.6976200	0.2106900	0.8680700	1.2288100	-0.3431800	0.7094300	0.9547400	-0.4316700	0.7313400	0.6635100	-0.4742100	0.5893200	0.7510000	-0.1378300	0.6027600	0.7546200	-0.0144600	0.7779500	0.3323800	-0.0216600	0.6865400	-0.1840900	0.0049600	0.5844700	0.7477700	-0.2377300	0.7565300	0.3207600	-0.2899000	0.6867900	-0.1816400	-0.3165100	0.9024800	-0.2212200	-0.3450800	0.8447900	-0.2208500	-0.3830900	0.6210400	-0.2334200	-0.3132300	0.8986100	-0.2127500	0.0334800	0.8338600	-0.2153700	0.0699300	0.6184300	-0.2338200	-0.0118100
121	2.0000000	0.8554500	1.2531800	-0.1536900	0.8525100	1.2555300	0.0251400	0.6991200	1.0085500	0.1558000	0.7328000	0.7239300	0.2105000	0.8662100	1.2472700	-0.3434500	0.7013400	0.9653300	-0.4355000	0.7323200	0.6818200	-0.4746300	0.6093200	0.7571600	-0.1307800	0.6047300	0.7588700	-0.0144500	0.7778000	0.3321900	-0.0213700	0.6867200	-0.1838000	0.0049700	0.6131700	0.7548800	-0.2426300	0.7480400	0.3193400	-0.2863200	0.6867300	-0.1784000	-0.3159200	0.9027000	-0.2179100	-0.3444900	0.8456000	-0.2206400	-0.3831400	0.6304700	-0.2271800	-0.3093300	0.8986000	-0.2127000	0.0335500	0.8349800	-0.2186500	0.0691000	0.6189300	-0.2337800	-0.0118600
122	2.0166667	0.8550800	1.2604800	-0.1606600	0.8608300	1.2659600	0.0211900	0.6882400	1.0170100	0.1532100	0.7224100	0.7371500	0.2076900	0.8591600	1.2575000	-0.3472100	0.7017300	0.9803400	-0.4363300	0.7320600	0.6925500	-0.4748000	0.6292300	0.7677500	-0.1309700	0.6224600	0.7657600	-0.0152300	0.7774200	0.3358200	-0.0212900	0.6865600	-0.1841400	0.0049900	0.6236100	0.7638800	-0.2465500	0.7470900	0.3298000	-0.2856700	0.6867900	-0.1815700	-0.3165300	0.9030800	-0.2175300	-0.3444300	0.8535600	-0.2176900	-0.3865100	0.6301700	-0.2311800	-0.3080900	0.8984900	-0.2158200	0.0343000	0.8339700	-0.2153800	0.0700200	0.6185100	-0.2338500	-0.0117700
123	2.0333333	0.8553000	1.2746500	-0.1611400	0.8613100	1.2872700	0.0207900	0.6964100	1.0212200	0.1482800	0.7221500	0.7454300	0.2080900	0.8576600	1.2688600	-0.3473600	0.7003500	1.0067500	-0.4357400	0.7312900	0.7121000	-0.4747200	0.6368000	0.7726200	-0.1351100	0.6237100	0.7689500	-0.0155700	0.7774300	0.3356500	-0.0209500	0.6868700	-0.1837800	0.0049100	0.6507100	0.7748100	-0.2511100	0.7476600	0.3233400	-0.2856300	0.6868400	-0.1820000	-0.3164600	0.9030700	-0.2177400	-0.3445000	0.8544300	-0.2174900	-0.3865800	0.6307700	-0.2311300	-0.3086000	0.8984900	-0.2158300	0.0342400	0.8434700	-0.2120200	0.0726500	0.6190000	-0.2337700	-0.0119300
124	2.0500000	0.8470600	1.2961500	-0.1568700	0.8430700	1.3023000	0.0217900	0.6952800	1.0367200	0.1487500	0.7215400	0.7485600	0.2077900	0.8493900	1.2900000	-0.3436600	0.6990400	1.0137500	-0.4362000	0.7388800	0.7202700	-0.4777000	0.6476500	0.7817000	-0.1312100	0.6422100	0.7792800	-0.0164400	0.7685700	0.3337800	-0.0246200	0.6866800	-0.1807700	0.0043100	0.6513200	0.7863800	-0.2506800	0.7473100	0.3259800	-0.2858100	0.6868300	-0.1815800	-0.3164900	0.9036000	-0.2205100	-0.3438100	0.8537500	-0.2177800	-0.3865100	0.6302600	-0.2342200	-0.3086200	0.8993900	-0.2196800	0.0336200	0.8431900	-0.2187300	0.0729400	0.6185900	-0.2337500	-0.0118600
125	2.0666667	0.8449600	1.3106700	-0.1573600	0.8339800	1.3101100	0.0258700	0.6954200	1.0475700	0.1482700	0.7225600	0.7594400	0.2074300	0.8478600	1.3045700	-0.3440300	0.7081100	1.0218700	-0.4313900	0.7392600	0.7281200	-0.4778900	0.6474900	0.7850500	-0.1317600	0.6426000	0.7782700	-0.0165200	0.7685600	0.3336600	-0.0243400	0.6870900	-0.1843000	0.0036400	0.6510700	0.7904000	-0.2509600	0.7558400	0.3282700	-0.2822900	0.6868700	-0.1821200	-0.3164800	0.9026000	-0.2179300	-0.3444400	0.8455500	-0.2208400	-0.3831100	0.6307900	-0.2342700	-0.3092200	0.8998400	-0.2236300	0.0328500	0.8437500	-0.2188000	0.0726800	0.6189600	-0.2338200	-0.0119700
126	2.0833333	0.8285200	1.3111300	-0.1566500	0.8167200	1.3135100	0.0269700	0.6959700	1.0577400	0.1482300	0.7216500	0.7667900	0.2075000	0.8483900	1.3113900	-0.3438600	0.7161300	1.0263200	-0.4275600	0.7389800	0.7380600	-0.4781000	0.6568700	0.7903700	-0.1272700	0.6427900	0.7864400	-0.0166000	0.7682800	0.3405800	-0.0246800	0.6866600	-0.1808300	0.0043200	0.6607200	0.7955200	-0.2542100	0.7550100	0.3315700	-0.2816200	0.6870200	-0.1852400	-0.3171400	0.9030600	-0.2207700	-0.3436700	0.8448800	-0.2210600	-0.3829700	0.6210400	-0.2376200	-0.3125500	0.8996200	-0.2266800	0.0336300	0.8433700	-0.2189900	0.0729400	0.6184800	-0.2338600	-0.0118600
127	2.1000000	0.8278200	1.3183000	-0.1572000	0.8239900	1.3178300	0.0223300	0.6953100	1.0653800	0.1478000	0.7216500	0.7785000	0.2075800	0.8385300	1.3157600	-0.3405400	0.6901900	1.0285600	-0.4401500	0.7395000	0.7460400	-0.4782900	0.6647300	0.7985800	-0.1316600	0.6601100	0.7999500	-0.0169900	0.7680900	0.3372600	-0.0239400	0.6870800	-0.1842600	0.0036900	0.6608500	0.7957700	-0.2548100	0.7552800	0.3288200	-0.2813100	0.6870600	-0.1858000	-0.3171600	0.9028400	-0.2243100	-0.3443700	0.8458700	-0.2209900	-0.3830600	0.6215700	-0.2377600	-0.3132400	0.8987000	-0.2230100	0.0342900	0.8436600	-0.2190800	0.0727300	0.6188300	-0.2338700	-0.0119500
